@startuml

package "Customer " <<aggregate>> {
    class Customer <<Entity>> <<root>>{
    }

}

package "CRMCollaborator " <<aggregate>> {

    class CRMCollaborator <<Entity>> <<root>>{
    }
}

package "ShowRequest " <<aggregate>>{

    class Location <<Value Object>>{
    }

    enum ShowRequestStatus <<Value Object>>{
    }

    class ShowRequest <<Entity>> <<root>>{
    }

    'ShowRequest -> x
    ShowRequest --> "1" CRMCollaborator : submitted by
    ShowRequest --> "1" Customer: requested by
    ShowRequest --> "1" Location: place
    ShowRequest --> "1" ShowRequestStatus: requestStatus
}

package Shared {

    class Time <<Value Object>>{
    }

    class Date <<Value Object>>{
    }

    class QuantityOfDrones <<Value Object>>{
    }

    class Description <<Value Object>>{
    }

    class Duration <<Value Object>>{
    }

    'ShowRequest -> x
    ShowRequest ----> "1" Duration : durationOfShow
    ShowRequest ----> "1" Date : dateOfShow
    ShowRequest ----> "1" Time : timeOfShow
    ShowRequest ----> "1" QuantityOfDrones: qnt_drones
    ShowRequest ----> "1" Description: description

}

@enduml