@startuml

package "Customer " <<aggregate>> {

    class Customer <<Entity>> <<root>>{
    }

}

package "CRMCollaborator " <<aggregate>> {

    class CRMCollaborator <<Entity>> <<root>>{
    }
}

package "CRM Manager " <<aggregate>> {

    class CRMManager <<Entity>> <<root>>{
    }
}

package "ModelOfDrone " <<aggregate>> {

    class Model <<Entity>> <<root>>{
    }

}

package "Figure " <<aggregate>> {

    class Figure <<Entity>> <<root>>{
    }
}

package "ShowRequest " <<aggregate>>{

    class ShowRequest <<Entity>> <<root>>{
    }
}


package "ShowProposal " <<aggregate>>{

    enum ShowProposalStatus <<Value Object>>{
    }

    class ShowProposal <<Entity>> <<root>>{
    }

    class ShowProposalDocument <<Value Object>>{
    }

    class ShowProposalNumber <<Value Object>>{
    }

    class Insurance <<Value Object>>{
    }

    class CustomerFeedback <<Value Object>>{
    }

    class ShowConfiguration <<Entity>>{
    }

    class Video <<Value Object>>{
    }

    class ProposalDocumentGenerator <<Service>> {
    }

    class ShowDSLDescription <<Value Object>> {
    }

    class GenerateShowDSL <<Service>> {
    }

    'ShowProposal -> x
    ShowProposal --> "1" CustomerFeedback: customerFeedback
    ShowProposal --> "1" CRMCollaborator: created by
    ShowProposal --> "1" CRMManager: template configured by
    ShowProposal --> "1" ShowRequest: based on
    ShowProposal --> "1" ShowProposalStatus: proposalStatus
    ShowProposal --> "1" ShowProposalDocument: document
    ShowProposal --> "1" ShowProposalNumber: proposalNumber
    ShowProposal --> "1" Insurance: insurance
    ShowProposal --> "1" ShowConfiguration: showConfiguration
    ShowProposal --> "1" Video: video

    'GenerateShowDSL -> x
    GenerateShowDSL ..> ShowConfiguration: uses
    GenerateShowDSL --> ShowDSLDescription: returns

    'ProposalDocumentGenerator -> x
    ProposalDocumentGenerator ..> "1" ShowProposalDocument: validates & generates

    'ShowConfiguration -> x
    ShowConfiguration --> "1..*" Model: models
    ShowConfiguration --> "1..*" Figure: figures
    ShowConfiguration --> "0..1" ShowDSLDescription: showDSLDescription
}

package "ProposalDeliveryInfo " <<aggregate>> {

    class ProposalDeliveryInfo <<Entity>> <<root>>{
    }

    class ProposalDeliveryInfoCode <<Value Object>> {
    }

    'ProposalDeliveryInfo -> x
    ProposalDeliveryInfo --> "1" ShowProposal: proposal
    ProposalDeliveryInfo --> "1" CRMCollaborator: sent by
    ProposalDeliveryInfo --> "1" Customer: customer
    ProposalDeliveryInfo --> "1" ProposalDeliveryInfoCode: code

}

package Shared {

    class Time <<Value Object>>{
    }

    class Date <<Value Object>>{
    }

    class Duration <<Value Object>>{
    }

    class QuantityOfDrones <<Value Object>>{
    }

    'ShowProposal -> x
    ShowProposal ----> "1" QuantityOfDrones: qnt_drones
    ShowProposal ----> "1" Time: timeOfShow
    ShowProposal ----> "1" Date: dateOfShow
    ShowProposal ----> "1" Duration: durationOfShow

    'ProposalDeliveryInfo -> x
    ProposalDeliveryInfo ----> "1" Date: deliveredAt
}

@enduml