@startuml

package "Customer " <<aggregate>> {
    class Customer <<Entity>> <<root>>{
    }

    class CustomerRepresentative <<Entity>>{
    }

    enum CustomerRepresentativeStatus <<Value Object>>{
    }

    class Address <<Value Object>>{
    }

    class VatNumber <<Value Object>>{
    }

    enum CustomerStatus <<Value Object>>{
    }

    enum CustomerType <<Value Object>>{
    }

    class Position <<Value Object>>{
    }

    'Customer -> x
    Customer  --> "1..*" CustomerRepresentative : represented by
    Customer --> "1" VatNumber : vat
    Customer --> "1" Address : address
    Customer --> "1" CustomerStatus : status
    Customer --> "1" CustomerType : type

    'Representative -> x
    CustomerRepresentative --> "1" Position : position
    CustomerRepresentative --> "1" CustomerRepresentativeStatus : status

}

package "CRMCollaborator " <<aggregate>> {

    class CRMCollaborator <<Entity>> <<root>>{
    }
}

package "CRM Manager " <<aggregate>> {

    class CRMManager <<Entity>> <<root>>{
    }
}

package "Drone " <<aggregate>> {

    class Drone <<Entity>> <<root>>{
    }

    class SerialNumber <<Value Object>>{
    }

    enum DroneStatus <<Value Object>>{
    }

    class RemovalReason <<Value Object>>{
    }

    class DroneLanguage <<Value Object>>{
    }

    class DroneLanguageValidate <<Service>>{
    }

    'Drone -> x
    Drone --> "1" DroneStatus: status
    Drone --> "1" SerialNumber: serialNumber
    Drone --> "0..*" RemovalReason: removalReason
    Drone --> "1" DroneLanguage: language

    'DroneLanguageValidate -> x
    DroneLanguageValidate ..> "1" DroneLanguage: validates
}

package "ModelOfDrone " <<aggregate>> {

    class Model <<Entity>> <<root>>{
    }

    class Configuration <<Entity>>{
    }

    class WindSpeed <<Value Object>>{
    }

    class PositionTolerance <<Value Object>>{
    }

    enum SafetyStatus <<Value Object>>{
    }
    class ModelName <<Value Object>>{
    }

    'Model -> x
    Model --> "1" Configuration: configuration
    Configuration --> "1..*" WindSpeed: windSpeed
    Configuration --> "1..*" PositionTolerance: positionTolerance
    Model --> "1" ModelName: modelName
    Configuration -->"1"  SafetyStatus: safetyStatus

    'Drone -> x
    Drone --> "1" Model: uses

}

package "Maintenance " <<aggregate>> {

    class Maintenance <<Entity>> <<root>>{
    }

    enum MaintenanceType <<Value Object>>{
    }

    'Maintenance -> x
    Maintenance --> "1" MaintenanceType: type

    Drone --> "1..*" Maintenance: undergoes
}

package "Figure " <<aggregate>> {

    class Figure <<Entity>> <<root>>{
    }

    class FigureID <<Value Object>> <<ID>> {
    }

    class Code <<Value Object>>{
    }

    class Version <<Value Object>>{
    }

    class DSLDescription <<Value Object>>{
    }

    enum FigureStatus <<Value Object>>{
    }

    class Keyword <<Value Object>>{
    }

    class Exclusivity <<Entity>>{
    }

    class DSLValidate <<Service>>{
    }

    'Figure -> x
    Figure --> "1" DSLDescription: DSLDescription
    Figure --> "1..*" Keyword: keywords
    Figure --> "0..1" Exclusivity: exclusivity
    Figure --> "1" FigureID: figureID
    Figure --> "1" FigureStatus: figureStatus

    'FigureID -> x
    FigureID --> "1" Code: code
    FigureID --> "1" Version: version

    'DSLValidate -> x
    DSLValidate ..> "1" DSLDescription: validates

    'Exclusivity -> x
    Exclusivity --> "1" Customer: exclusive to
}

package "Category " <<aggregate>>{

    class Category <<Entity>> <<root>>{
    }

    enum CategoryStatus <<Value Object>>{
    }

    'Category -> x
    Category --> "1" CategoryStatus: categoryStatus

    'Figure -> x
    Figure --> "1..*" Category: categories
}

package "ShowRequest " <<aggregate>>{

    class Location <<Value Object>>{
    }

    enum ShowRequestStatus <<Value Object>>{
    }

    class ShowRequest <<Entity>> <<root>>{
    }

    'ShowRequest -> x
    ShowRequest --> "1" CRMCollaborator : submitted by
    ShowRequest --> "1" Customer: requested by
    ShowRequest --> "1" Location: place
    ShowRequest --> "1" ShowRequestStatus: requestStatus
}

package "ShowProposal " <<aggregate>>{

    enum ShowProposalStatus <<Value Object>>{
    }

    class ShowProposal <<Entity>> <<root>>{
    }

    class ShowProposalDocument <<Value Object>>{
    }

    class ShowProposalNumber <<Value Object>>{
    }

    class Insurance <<Value Object>>{
    }

    class CustomerFeedback <<Value Object>>{
    }

    class ShowConfiguration <<Entity>>{
    }

    class ShowConfigurationFigure <<Value Object>>{
    }

    class Video <<Value Object>>{
    }

    class ProposalDocumentGenerator <<Service>> {
    }

    class ShowDSLDescription <<Value Object>> {
    }

    class GenerateShowDSL <<Service>> {
    }

    'ShowProposal -> x
    ShowProposal --> "1" CustomerFeedback: customerFeedback
    ShowProposal --> "1" CRMCollaborator: created by
    ShowProposal --> "1" CRMManager: template configured by
    ShowProposal --> "1" ShowRequest: based on
    ShowProposal --> "1" ShowProposalStatus: proposalStatus
    ShowProposal --> "1" ShowProposalDocument: document
    ShowProposal --> "1" ShowProposalNumber: proposalNumber
    ShowProposal --> "1" Insurance: insurance
    ShowProposal --> "1" ShowConfiguration: showConfiguration
    ShowProposal --> "1" Video: video

    'GenerateShowDSL -> x
    GenerateShowDSL ..> ShowConfiguration: uses
    GenerateShowDSL --> ShowDSLDescription: returns

    'ProposalDocumentGenerator -> x
    ProposalDocumentGenerator ..> "1" ShowProposalDocument: validates & generates

    'ShowConfiguration -> x
    ShowConfiguration --> "1..*" Model: models
    ShowConfiguration --> "1..*" ShowConfigurationFigure: figures
    ShowConfigurationFigure --> "1..1" Figure: figure
    ShowConfiguration -> "0..1" ShowDSLDescription: showDSLDescription

}

package "ProposalDeliveryInfo " <<aggregate>> {

    class ProposalDeliveryInfo <<Entity>> <<root>>{
    }

    class ProposalDeliveryInfoCode <<Value Object>> {
    }

    'ProposalDeliveryInfo -> x
    ProposalDeliveryInfo --> "1" ShowProposal: proposal
    ProposalDeliveryInfo --> "1" CRMCollaborator: sent by
    ProposalDeliveryInfo --> "1" Customer: customer
    ProposalDeliveryInfo --> "1" ProposalDeliveryInfoCode: code

}

package "ShowDesigner " <<aggregate>>{

    class ShowDesigner <<Entity>> <<root>>{
    }

    'Figure -> x
    Figure --> "1" ShowDesigner: created by
}

package Shared {

    class Time <<Value Object>>{
    }

    class Name <<Value Object>>{
    }

    class Email <<Value Object>>{
    }

    class PhoneNumber <<Value Object>>{
    }

    class Date <<Value Object>>{
    }

    class QuantityOfDrones <<Value Object>>{
    }

    class Description <<Value Object>>{
    }

    class Duration <<Value Object>>{
    }

    'CRM Collaborator -> x
    CRMCollaborator --> "1" Name: name
    CRMCollaborator --> "1" Email: email
    CRMCollaborator --> "1" PhoneNumber: phoneNumber

    'CRM Manager -> x
    CRMManager --> "1" Name: name
    CRMManager --> "1" Email: email
    CRMManager --> "1" PhoneNumber: phoneNumber

    'ShowDesigner -> x
    ShowDesigner --> "1" Name: name
    ShowDesigner --> "1" Email: email
    ShowDesigner --> "1" PhoneNumber: phoneNumber

    'Customer -> x
    Customer ----> "1" Name : name

    'Representative -> x
    CustomerRepresentative --> "1" Name : name
    CustomerRepresentative --> "1" Email : email
    CustomerRepresentative --> "1" PhoneNumber : phoneNumber

    'ShowRequest -> x
    ShowRequest ----> "1" Duration : durationOfShow
    ShowRequest ----> "1" Date : dateOfShow
    ShowRequest ----> "1" Time : timeOfShow
    ShowRequest ----> "1" QuantityOfDrones: qnt_drones
    ShowRequest ----> "1" Description: description

    'Maintenance -> x
    Maintenance ----> "1" Date: date
    Maintenance ----> "1" Description: description

    'ShowProposal -> x
    ShowProposal ----> "1" QuantityOfDrones: qnt_drones
    ShowProposal ----> "1" Time: time
    ShowProposal ----> "1" Date: date

    'Category -> x
    Category ----> "1" Name: name
    Category ----> "1" Description: description

    'Figure -> x
    Figure ----> "1" Description: description
    Figure ----> "1" Name: name

    'Model -> x
    Model --> "1" Name: modelName

    'ProposalDeliveryInfo -> x
    ProposalDeliveryInfo --> "1" Date: deliveredAt

}

package "EAPLI Framework" <<framework>> {
    class DateInterval <<Value Object>>{
    }

    Exclusivity --> "1" DateInterval: duration
}

@enduml