@startuml
set separator none

package "Persistence " #DDDDDD {
    class PersistenceContext {
        + getRepositoryFactory(): RepositoryFactory
    }
}

package "persistence.impl.jpa" #DDDDDD {
    class JpaRepositoryFactory {
        - JpaRepositoryFactory()
        + getInstance(): RepositoryFactory
    }

    class JpaFigureRepository {
    }

    class JpaCategoryRepository {
    }

}

package "persistence.impl.inmemory" #DDDDDD {
    class InMemoryRepositoryFactory {
        - InMemoryRepositoryFactory()
        + getInstance(): RepositoryFactory
    }

    class InMemoryFigureRepository {
    }

    class InMemoryCategoryRepository {
    }
}

package "Domain" #DDDDDD {

    package "Repository " #DDDDDD {

        interface RepositoryFactory {
            + getFigureRepository(): FigureRepository
        }

        interface FigureRepository {
            + searchCatalogue(category, keyword): List<Figure>
        }

        note right of FigureRepository
            The searchCatalogue method accepts two optional parameters:
            a category and a keyword.

            - If both are provided, the search filters by both criteria.
            - If only one is provided, the search filters using that parameter only.
            - To ignore a criterion, pass null for that parameter.
        end note

        interface CategoryRepository {
            + findAllActiveCategories: Iterable<Category>
        }

    }

    'Figure Aggregate
    class Figure {
        + matchesCategory(category): boolean
        + matchesKeyword(term): boolean
    }

    class Code <<Value Object>>{
    }

    class Version <<Value Object>>{
    }

    class Description <<Value Object>>{
    }

    enum FigureStatus <<Value Object>>{
    }

    class Keyword <<Value Object>>{
    }

    class Exclusivity <<Entity>>{
    }


    'Category Aggregate
    class Category <<Entity>>{
    }

    'Customer Aggregate
    class Customer <<Entity>>{
    }

    'Shared
    class Name <<Value Object>>{
    }

}

package "UI" #DDDDDD {
    class SearchCatalogueUI <<UI>> {
        + showSearchCatalogue(category, keyword)
        + showCategoriesAndSelect(): String
    }
}

package "Controller" #DDDDDD {
    class SearchCatalogueController <<Controller>> {
        + listSearchResults(category, keyword): List<Figure>
        + listCategories(): Iterable<Category>
    }
}

'Persistence

    'PersistenceContext -> x
    PersistenceContext ..> RepositoryFactory: figureRepository()
    PersistenceContext ..> JpaRepositoryFactory
    PersistenceContext ..> InMemoryRepositoryFactory

'persistence.impl.jpa

    'JpaCategoryRepository -> x
    JpaCategoryRepository --|> CategoryRepository

    'JpaFigureRepository -> x
    JpaFigureRepository --|> FigureRepository

    'JpaRepositoryFactory -> x
    JpaRepositoryFactory ..|> RepositoryFactory
    JpaRepositoryFactory ..> JpaFigureRepository
    JpaRepositoryFactory ..> JpaCategoryRepository

'persistence.impl.inmemory

    'InMemoryCategoryRepository ->
    InMemoryCategoryRepository ..|> CategoryRepository

    'InMemoryFigureRepository -> x
    InMemoryFigureRepository ..|> FigureRepository

    'InMemoryRepositoryFactory -> x
    InMemoryRepositoryFactory ..|> RepositoryFactory
    InMemoryRepositoryFactory ..> InMemoryFigureRepository
    InMemoryCategoryRepository ..> InMemoryCategoryRepository

'Repository

    'CategoryRepository ->
    CategoryRepository ...> Category

    'FigureRepository -> x
    FigureRepository ...> Figure

    'RepositoryFactory -> x
    RepositoryFactory ..> FigureRepository

'Domain

    'Figure -> x
    Figure --> "1..*" Keyword: keywords
    Figure --> "1" Code: code
    Figure --> "1" Version: version
    Figure --> "1" Description: description
    Figure --> "1" FigureStatus: figureStatus
    Figure --> "1..*" Category: categories
    Figure --> "0..1" Exclusivity: exclusivity

    'Category -> x
    Category --> "1" Name: name

    'Exclusivity -> x
    Exclusivity --> "1" Customer: exclusive to

    'Customer -> x
    Customer --> "1" Name: name

'UI

    'SearchCatalogueUI -> x
    SearchCatalogueUI ..> SearchCatalogueController

'Controller

    'SearchCatalogueController -> x
    SearchCatalogueController ..> PersistenceContext : getRepositoryFactory()
    SearchCatalogueController ..> RepositoryFactory : getFigureRepository()
    SearchCatalogueController ..> CategoryRepository : getCategoryRepository()
    SearchCatalogueController ..> FigureRepository : searchCatalogue(category, keywords)


@enduml