@startuml

enum ShowProposalStatus <<Value Object>>{
}

class ShowProposal <<Entity>> <<root>>{
}

class ShowRequest <<Entity>> <<root>>{
}

class CRMCollaborator <<Entity>> <<root>>{
}

class Date <<Value Object>>{
}

class QuantityOfDrones <<Value Object>>{
}

class Time <<Value Object>>{
}

class ShowProposalNumber <<Value Object>>{
}

    'ShowProposal -> x
    ShowProposal --> "1" CRMCollaborator: created by
    ShowProposal --> "1" ShowRequest: based on
    ShowProposal --> "1" ShowProposalStatus: proposalStatus
    ShowProposal ----> "1" QuantityOfDrones: qnt_drones
    ShowProposal ----> "1" Time: time
    ShowProposal ----> "1" Date: date
    ShowProposal --> "1" Insurance: insurance
    ShowProposal --> "1" ShowProposalNumber: proposalNumber


@enduml